<svg xmlns="http://www.w3.org/2000/svg" xmlns:xlink="http://www.w3.org/1999/xlink" version="1.1" x="0px" y="0px" viewBox="0 0 100 125" enable-background="new 0 0 100 100" xml:space="preserve"><g><g><g><path fill="#000000" d="M91.2,15L82,5.8c-1-1-2.6-1-3.7,0l-1.6,1.7l-5,5l-1.8,1.8L44.5,39.6c-0.1,0.1-0.2,0.2-0.3,0.4     c-0.1,0.1-0.1,0.2-0.2,0.3c0,0-0.1,0.1-0.1,0.1l-6.9,16c-0.4,1-0.2,2.1,0.5,2.8c0.5,0.5,1.2,0.8,1.8,0.8c0.3,0,0.7-0.1,1-0.2     l16-6.9c0.2-0.1,0.3-0.1,0.5-0.2c0.1,0,0.1-0.1,0.2-0.2c0.1-0.1,0.1-0.1,0.2-0.2l27.2-27.2l5-5l1.7-1.7c0.5-0.5,0.8-1.1,0.8-1.8     C91.9,16.1,91.7,15.4,91.2,15z M44.4,52.6l2.8-6.7l3.8,3.8L44.4,52.6z M55.6,46.9L50,41.4l23.5-23.5l0,0c0.1,0,0.1-0.1,0.1-0.1     l-0.1,0.1l5.6,5.6L55.6,46.9z M82.7,19.8l-5.6-5.6l3-3l5.6,5.6L82.7,19.8z"/><path fill="#000000" d="M44,40.3c0,0-0.1,0.1-0.1,0.1L44,40.3C44,40.4,44,40.3,44,40.3z"/><path fill="#000000" d="M73.7,17.7l-0.1,0.1l0,0C73.6,17.8,73.6,17.8,73.7,17.7z"/></g></g><g><path fill="#000000" d="M40,95H28.4c-1.4,0-2.6-1.2-2.6-2.6c0-1.4,1.2-2.6,2.6-2.6H40c3.5,0,6.3-2.8,6.3-6.3    c0-3.5-2.8-6.3-6.3-6.3H19.5c-6.3,0-11.5-5.1-11.5-11.5c0-6.3,5.1-11.5,11.5-11.5h6.8c1.4,0,2.6,1.2,2.6,2.6s-1.2,2.6-2.6,2.6    h-6.8c-3.5,0-6.3,2.8-6.3,6.3c0,3.5,2.8,6.3,6.3,6.3H40c6.3,0,11.5,5.1,11.5,11.5C51.5,89.9,46.3,95,40,95z"/></g><g><path fill="#000000" d="M73.7,17.7l-0.1,0.1l0,0C73.6,17.8,73.6,17.8,73.7,17.7z"/></g></g></svg>