<?xml version="1.0" encoding="UTF-8" standalone="no"?>
<svg
   xmlns:dc="http://purl.org/dc/elements/1.1/"
   xmlns:cc="http://creativecommons.org/ns#"
   xmlns:rdf="http://www.w3.org/1999/02/22-rdf-syntax-ns#"
   xmlns:svg="http://www.w3.org/2000/svg"
   xmlns="http://www.w3.org/2000/svg"
   xmlns:sodipodi="http://sodipodi.sourceforge.net/DTD/sodipodi-0.dtd"
   xmlns:inkscape="http://www.inkscape.org/namespaces/inkscape"
   width="6.3499999mm"
   height="6.3499994mm"
   viewBox="0 0 6.3499999 6.3499994"
   version="1.1"
   id="svg62"
   inkscape:version="1.0.2 (1.0.2+r75+1)"
   sodipodi:docname="icon.svg">
  <defs
     id="defs56" />
  <sodipodi:namedview
     id="base"
     pagecolor="#ffffff"
     bordercolor="#666666"
     borderopacity="1.0"
     inkscape:pageopacity="0.0"
     inkscape:pageshadow="2"
     inkscape:zoom="15.839192"
     inkscape:cx="17.114758"
     inkscape:cy="20.827939"
     inkscape:document-units="mm"
     inkscape:current-layer="layer1"
     inkscape:document-rotation="0"
     showgrid="false"
     inkscape:window-width="1670"
     inkscape:window-height="1016"
     inkscape:window-x="156"
     inkscape:window-y="93"
     inkscape:window-maximized="0"
     fit-margin-top="0"
     fit-margin-left="0"
     fit-margin-right="0"
     fit-margin-bottom="0" />
  <metadata
     id="metadata59">
    <rdf:RDF>
      <cc:Work
         rdf:about="">
        <dc:format>image/svg+xml</dc:format>
        <dc:type
           rdf:resource="http://purl.org/dc/dcmitype/StillImage" />
        <dc:title></dc:title>
      </cc:Work>
    </rdf:RDF>
  </metadata>
  <g
     inkscape:label="Layer 1"
     inkscape:groupmode="layer"
     id="layer1">
    <g
       id="g82"
       transform="matrix(0.07568534,0,0,0.07059477,-0.60548272,-0.35650359)">
      <g
         id="g72">
        <g
           id="g70">
          <path
             fill="#000000"
             d="M 91.2,15 82,5.8 c -1,-1 -2.6,-1 -3.7,0 l -1.6,1.7 -5,5 -1.8,1.8 -25.4,25.3 c -0.1,0.1 -0.2,0.2 -0.3,0.4 -0.1,0.1 -0.1,0.2 -0.2,0.3 0,0 -0.1,0.1 -0.1,0.1 l -6.9,16 c -0.4,1 -0.2,2.1 0.5,2.8 0.5,0.5 1.2,0.8 1.8,0.8 0.3,0 0.7,-0.1 1,-0.2 l 16,-6.9 c 0.2,-0.1 0.3,-0.1 0.5,-0.2 0.1,0 0.1,-0.1 0.2,-0.2 0.1,-0.1 0.1,-0.1 0.2,-0.2 l 27.2,-27.2 5,-5 1.7,-1.7 c 0.5,-0.5 0.8,-1.1 0.8,-1.8 0,-0.5 -0.2,-1.2 -0.7,-1.6 z M 44.4,52.6 47.2,45.9 51,49.7 Z M 55.6,46.9 50,41.4 73.5,17.9 v 0 c 0.1,0 0.1,-0.1 0.1,-0.1 l -0.1,0.1 5.6,5.6 z m 27.1,-27.1 -5.6,-5.6 3,-3 5.6,5.6 z"
             id="path64" />
          <path
             fill="#000000"
             d="m 44,40.3 c 0,0 -0.1,0.1 -0.1,0.1 L 44,40.3 c 0,0.1 0,0 0,0 z"
             id="path66" />
          <path
             fill="#000000"
             d="m 73.7,17.7 -0.1,0.1 v 0 c 0,0 0,0 0.1,-0.1 z"
             id="path68" />
        </g>
      </g>
      <g
         id="g76">
        <path
           fill="#000000"
           d="M 40,95 H 28.4 C 27,95 25.8,93.8 25.8,92.4 25.8,91 27,89.8 28.4,89.8 H 40 c 3.5,0 6.3,-2.8 6.3,-6.3 0,-3.5 -2.8,-6.3 -6.3,-6.3 H 19.5 C 13.2,77.2 8,72.1 8,65.7 8,59.4 13.1,54.2 19.5,54.2 h 6.8 c 1.4,0 2.6,1.2 2.6,2.6 0,1.4 -1.2,2.6 -2.6,2.6 h -6.8 c -3.5,0 -6.3,2.8 -6.3,6.3 0,3.5 2.8,6.3 6.3,6.3 H 40 c 6.3,0 11.5,5.1 11.5,11.5 C 51.5,89.9 46.3,95 40,95 Z"
           id="path74" />
      </g>
      <g
         id="g80">
        <path
           fill="#000000"
           d="m 73.7,17.7 -0.1,0.1 v 0 c 0,0 0,0 0.1,-0.1 z"
           id="path78" />
      </g>
    </g>
  </g>
</svg>
